<svg width="24" height="24" viewBox="0 0 24 24" fill="none" xmlns="http://www.w3.org/2000/svg">
<path d="M6.13976 17.8052C6.45142 17.5415 6.77505 17.3085 7.10466 17.105C7.17345 17.0628 7.14713 16.956 7.06697 16.9511C6.81752 16.9366 6.56388 16.9342 6.30666 16.9439C6.21154 16.9475 6.13139 16.872 6.13139 16.7755V16.3113C6.13139 14.4884 7.59638 13.0101 9.40294 13.0101H15.2067C16.2487 13.0101 17.1765 13.5014 17.7753 14.2668C18.5698 14.1872 19.2726 13.9294 19.9797 13.3813C19.5095 12.5417 18.8019 11.8554 17.9488 11.4147C18.8252 9.48739 20.3452 5.89284 20.3111 4.2166C20.2668 2.06047 18.5309 1.21782 17.5929 1.06632C16.6633 0.865311 14.7431 1.01803 13.9295 3.01178C13.2667 4.63611 13.4402 8.84755 13.5706 10.8757H11.0396C11.17 8.84695 11.3435 4.63611 10.6807 3.01178C9.86654 1.01742 7.94632 0.865311 7.01672 1.06632C6.07815 1.21782 4.34217 2.06047 4.2985 4.2166C4.2644 5.89284 5.78503 9.4886 6.66139 11.4159C5.08155 12.232 4 13.8896 4 15.803V18.0726C4 18.7119 4.12084 19.3227 4.34038 19.8835C4.86559 19.0559 5.47815 18.363 6.13976 17.8052ZM15.3676 3.60875C15.6158 3.0818 15.9449 2.748 16.4599 2.62667C16.8667 2.53069 17.231 2.59407 17.2788 2.60313L17.2938 2.60796L17.3339 2.61339C17.3722 2.62063 17.7406 2.69307 18.0906 2.93391C18.5273 3.23511 18.745 3.66489 18.757 4.24799C18.766 4.67414 18.6021 5.82463 17.4063 8.73951C17.0653 9.57129 16.7207 10.3481 16.4551 10.93C16.2721 10.8836 15.9604 10.8757 15.9604 10.8757C15.9604 10.8757 17.7113 5.98278 17.2268 5.10331C16.6298 4.01982 15.1259 4.43812 15.1259 4.43812C15.1259 4.43812 15.1929 3.97998 15.3682 3.60815L15.3676 3.60875ZM8.98779 10.8757C8.98779 10.8757 9.09068 5.64657 8.2215 4.87756C7.03057 3.88643 5.93697 4.90834 5.93697 4.90834C5.86758 4.55945 5.85083 4.39285 5.85322 4.24859C5.86519 3.66549 6.08293 3.23511 6.51962 2.93451C6.86418 2.69669 7.22669 2.62305 7.27455 2.61399H7.2901L7.32898 2.60373C7.36667 2.59649 7.73636 2.52949 8.14971 2.62667C8.66476 2.748 9.02189 3.06912 9.24202 3.60875C9.40294 4.00292 9.66196 5.1353 9.59257 8.28921C9.57044 9.28518 9.52019 10.2208 9.47831 10.8757H8.98779Z" fill="black"/>
<path d="M20.2692 13.9922C19.744 14.8198 19.1314 15.5127 18.4698 16.0705C18.1581 16.3342 17.8345 16.5672 17.5049 16.7707C17.4361 16.8129 17.4624 16.9204 17.5426 16.9246C17.792 16.9391 18.0457 16.9415 18.3029 16.9318C18.398 16.9282 18.4782 17.0037 18.4782 17.1002V17.5644C18.4782 19.3873 17.0132 20.8656 15.2066 20.8656H9.40289C8.36082 20.8656 7.43302 20.3743 6.83422 19.6089C6.03981 19.6886 5.33692 19.9463 4.62985 20.4944C5.46793 21.9901 7.05854 23 8.88305 23H15.7265C18.4231 23 20.6096 20.7938 20.6096 18.0727V15.8031C20.6096 15.1638 20.4887 14.553 20.2692 13.9922Z" fill="black"/>
<path d="M9.58414 18.4662C10.2389 18.4662 10.7698 17.782 10.7698 16.9379C10.7698 16.0938 10.2389 15.4095 9.58414 15.4095C8.92933 15.4095 8.39851 16.0938 8.39851 16.9379C8.39851 17.782 8.92933 18.4662 9.58414 18.4662Z" fill="black"/>
<path d="M15.026 18.4662C15.6808 18.4662 16.2116 17.782 16.2116 16.9379C16.2116 16.0938 15.6808 15.4095 15.026 15.4095C14.3712 15.4095 13.8403 16.0938 13.8403 16.9379C13.8403 17.782 14.3712 18.4662 15.026 18.4662Z" fill="black"/>
</svg>
