<svg width="240" height="240" viewBox="0 0 240 240" fill="none" xmlns="http://www.w3.org/2000/svg">
<path d="M163 200.375L188.4 226L230 184" stroke="#E8471C" stroke-width="19" stroke-linecap="round" stroke-linejoin="round"/>
<path fill-rule="evenodd" clip-rule="evenodd" d="M49.2577 175.031C45.7672 177.204 42.3402 179.693 39.0398 182.511C32.0335 188.468 25.5467 195.87 19.9848 204.71C17.66 198.72 16.3804 192.195 16.3804 185.367V161.123C16.3804 140.684 27.8336 122.979 44.5636 114.261C35.2832 93.6736 19.1803 55.2645 19.5414 37.3591C20.0038 14.3278 38.3873 5.32676 48.3265 3.70837C58.1707 1.56128 78.5052 3.18611 87.1268 24.4894C94.1457 41.8403 92.3086 86.8197 90.9276 108.491H117.73C116.349 86.8262 114.512 41.8403 121.531 24.4894C130.146 3.19256 150.481 1.56128 160.325 3.70837C170.258 5.32676 188.641 14.3278 189.11 37.3591C189.471 55.2645 173.374 93.6608 164.094 114.248C173.127 118.955 180.621 126.286 185.6 135.255C178.113 141.11 170.669 143.863 162.257 144.714C155.916 136.538 146.091 131.29 135.055 131.29H73.5958C54.4649 131.29 38.9511 147.08 38.9511 166.552V171.511C38.9511 172.542 39.7999 173.348 40.8071 173.31C43.5311 173.206 46.217 173.232 48.8586 173.387C49.7075 173.439 49.9862 174.58 49.2577 175.031ZM148.327 20.3758C142.873 21.6718 139.388 25.2374 136.76 30.8662L136.766 30.8598C134.91 34.8316 134.2 39.7254 134.2 39.7254C134.2 39.7254 150.126 35.2572 156.448 46.8308C161.579 56.2252 143.037 108.491 143.037 108.491C143.037 108.491 146.338 108.574 148.276 109.071C151.089 102.855 154.738 94.557 158.348 85.672C171.011 54.5359 172.747 42.2465 172.652 37.6944C172.525 31.4659 170.22 26.8751 165.595 23.6577C161.889 21.085 157.987 20.3113 157.582 20.2339L157.157 20.1759L156.999 20.1243C156.492 20.0276 152.634 19.3506 148.327 20.3758ZM61.0847 44.4194C70.289 52.6338 69.1995 108.491 69.1995 108.491H74.394C74.8374 101.495 75.3695 91.5008 75.6039 80.862C76.3387 47.1726 73.5958 35.0766 71.8917 30.8662C69.5605 25.102 65.7787 21.6718 60.3245 20.3758C55.9472 19.3377 52.0323 20.0534 51.6332 20.1308L51.2215 20.2404H51.0568C50.55 20.3371 46.7111 21.1237 43.0623 23.6641C38.4379 26.8751 36.1321 31.4723 36.0054 37.7008C35.9801 39.2419 36.1574 41.0214 36.8923 44.7482C36.8923 44.7482 48.4732 33.8323 61.0847 44.4194ZM169.611 163.98C176.617 158.022 183.104 150.62 188.665 141.78C190.99 147.77 192.27 154.295 192.27 161.124V185.367C192.27 188.925 191.923 192.401 191.262 195.762L169.049 173.549L169.026 173.571C168.703 173.312 168.288 173.164 167.843 173.181C165.119 173.284 162.433 173.258 159.792 173.103C158.943 173.058 158.664 171.911 159.393 171.459C162.883 169.286 166.31 166.798 169.611 163.98ZM144.011 214.011C141.154 214.787 138.152 215.201 135.055 215.201H73.5948C62.5597 215.201 52.7345 209.952 46.3934 201.777C37.9808 202.628 30.5375 205.381 23.0498 211.235C31.9248 227.213 48.7689 238 68.0899 238H140.559C148.547 238 156.111 236.156 162.865 232.865L144.011 214.011ZM75.5146 189.571C82.4488 189.571 88.0701 182.262 88.0701 173.245C88.0701 164.229 82.4488 156.92 75.5146 156.92C68.5804 156.92 62.9592 164.229 62.9592 173.245C62.9592 182.262 68.5804 189.571 75.5146 189.571ZM145.697 173.245C145.697 182.262 140.076 189.571 133.142 189.571C126.208 189.571 120.587 182.262 120.587 173.245C120.587 164.229 126.208 156.92 133.142 156.92C140.076 156.92 145.697 164.229 145.697 173.245Z" fill="#E8471C"/>
</svg>
