<svg width="64" height="64" viewBox="0 0 64 64" fill="none" xmlns="http://www.w3.org/2000/svg">
<rect width="64" height="64" rx="32" fill="#E8471C"/>
<g clip-path="url(#clip0_160_2053)">
<path d="M18.5353 44.6661C19.2152 44.0906 19.9213 43.5822 20.6405 43.1384C20.7906 43.0462 20.7331 42.8131 20.5583 42.8026C20.014 42.771 19.4606 42.7657 18.8994 42.7868C18.6919 42.7947 18.517 42.6301 18.517 42.4193V41.4066C18.517 37.4293 21.7133 34.204 25.6549 34.204H38.3176C40.5911 34.204 42.6154 35.276 43.9219 36.946C45.6552 36.7721 47.1887 36.2098 48.7314 35.014C47.7056 33.182 46.1616 31.6846 44.3004 30.7232C46.2125 26.5181 49.5289 18.6755 49.4545 15.0183C49.3579 10.314 45.5703 8.4755 43.5238 8.14493C41.4956 7.70638 37.3061 8.03958 35.531 12.3896C34.0849 15.9336 34.4634 25.1221 34.7479 29.5472H29.2258C29.5103 25.1208 29.8888 15.9336 28.4427 12.3896C26.6664 8.03826 22.4768 7.70638 20.4486 8.14493C18.4008 8.4755 14.6133 10.314 14.518 15.0183C14.4436 18.6755 17.7613 26.5208 19.6734 30.7259C16.2264 32.5064 13.8667 36.1229 13.8667 40.2977V45.2495C13.8667 46.6442 14.1303 47.977 14.6093 49.2005C15.7553 47.3949 17.0917 45.883 18.5353 44.6661ZM38.6686 13.6921C39.2103 12.5423 39.9281 11.814 41.0519 11.5493C41.9394 11.3399 42.7342 11.4782 42.8386 11.498L42.8713 11.5085L42.9587 11.5204C43.0422 11.5362 43.8462 11.6942 44.6097 12.2197C45.5625 12.8768 46.0376 13.8145 46.0637 15.0867C46.0832 16.0165 45.7256 18.5267 43.1166 24.8864C42.3727 26.7012 41.6209 28.3961 41.0414 29.6657C40.642 29.5643 39.9621 29.5472 39.9621 29.5472C39.9621 29.5472 43.7823 18.8717 42.7251 16.9529C41.4225 14.5889 38.1414 15.5016 38.1414 15.5016C38.1414 15.5016 38.2875 14.502 38.6699 13.6907L38.6686 13.6921ZM24.7491 29.5472C24.7491 29.5472 24.9736 18.1382 23.0772 16.4603C20.4788 14.2979 18.0928 16.5275 18.0928 16.5275C17.9414 15.7663 17.9049 15.4028 17.9101 15.0881C17.9362 13.8159 18.4113 12.8768 19.364 12.221C20.1158 11.7021 20.9067 11.5414 21.0111 11.5217H21.0451L21.1299 11.4993C21.2121 11.4835 22.0187 11.3373 22.9206 11.5493C24.0443 11.814 24.8235 12.5147 25.3038 13.6921C25.6549 14.552 26.22 17.0227 26.0686 23.9039C26.0203 26.0769 25.9107 28.1183 25.8193 29.5472H24.7491Z" fill="white"/>
<path d="M49.3631 36.3467C48.2171 38.1523 46.8807 39.6642 45.4371 40.881C44.7572 41.4566 44.0511 41.9649 43.3319 42.4087C43.1818 42.5009 43.2393 42.7354 43.4141 42.7446C43.9584 42.7762 44.5118 42.7815 45.073 42.7604C45.2805 42.7525 45.4554 42.9171 45.4554 43.1278V44.1406C45.4554 48.1179 42.2591 51.3431 38.3175 51.3431H25.6548C23.3812 51.3431 21.3569 50.2711 20.0505 48.6012C18.3172 48.775 16.7837 49.3374 15.241 50.5332C17.0695 53.7967 20.5399 56 24.5207 56H39.4517C45.3353 56 50.1057 51.1864 50.1057 45.2495V40.2976C50.1057 38.9029 49.8421 37.5702 49.3631 36.3467Z" fill="white"/>
<path d="M26.0502 46.1082C27.4789 46.1082 28.637 44.6152 28.637 42.7736C28.637 40.9319 27.4789 39.439 26.0502 39.439C24.6215 39.439 23.4634 40.9319 23.4634 42.7736C23.4634 44.6152 24.6215 46.1082 26.0502 46.1082Z" fill="white"/>
<path d="M37.9233 46.1082C39.3519 46.1082 40.5101 44.6152 40.5101 42.7736C40.5101 40.9319 39.3519 39.439 37.9233 39.439C36.4946 39.439 35.3364 40.9319 35.3364 42.7736C35.3364 44.6152 36.4946 46.1082 37.9233 46.1082Z" fill="white"/>
</g>
<defs>
<clipPath id="clip0_160_2053">
<rect width="36.2391" height="48" fill="white" transform="translate(13.8667 8)"/>
</clipPath>
</defs>
</svg>
